<svg xmlns="http://www.w3.org/2000/svg" version="1.1" xmlns:xlink="http://www.w3.org/1999/xlink" xmlns:svgjs="http://svgjs.dev/svgjs" width="1500" height="1500" viewBox="0 0 1500 1500"><rect width="1500" height="1500" fill="#000000"></rect><g transform="matrix(0.6666666666666666,0,0,0.6666666666666666,249.39393939393938,438.5856950067477)"><svg viewBox="0 0 396 247" data-background-color="#ffffff" preserveAspectRatio="xMidYMid meet" height="935" width="1500" xmlns="http://www.w3.org/2000/svg" xmlns:xlink="http://www.w3.org/1999/xlink"><g id="tight-bounds" transform="matrix(1,0,0,1,0.2400000000000091,-0.09999999999999432)"><svg viewBox="0 0 395.52 247.2" height="247.2" width="395.52"><g><svg></svg></g><g><svg viewBox="0 0 395.52 247.2" height="247.2" width="395.52"><g transform="matrix(1,0,0,1,75.54432,62.58914719112068)"><svg viewBox="0 0 244.43135999999998 122.02170561775863" height="122.02170561775863" width="244.43135999999998"><g><svg viewBox="0 0 245.65351679999995 122.6318141458474" height="122.02170561775863" width="244.43135999999998"><g><rect width="245.65351679999995" height="2.2212565771723654" x="0" y="68.92784801962071" fill="#ffffff" opacity="1" stroke-width="0" stroke="transparent" fill-opacity="1" class="rect-qz-0" data-fill-palette-color="secondary" rx="1%" id="qz-0" data-palette-color="#6936f5"></rect></g><g transform="matrix(1,0,0,1,0.6110783999999825,76.96391239043801)"><svg viewBox="0 0 244.43135999999998 45.66790175540939" height="45.66790175540939" width="244.43135999999998"><g id="textblocktransform"><svg viewBox="0 0 244.43135999999998 45.66790175540939" height="45.66790175540939" width="244.43135999999998" id="textblock"><g><svg viewBox="0 0 244.43135999999998 24.63108403075677" height="24.63108403075677" width="244.43135999999998"><g transform="matrix(1,0,0,1,0,0)"><svg width="244.43135999999998" viewBox="5.7 -37.1 370.62 37.35" height="24.63108403075677" data-palette-color="#6936f5"><path d="M27.75-18.05Q31.2-17.3 33.08-15.08 34.95-12.85 34.95-9.35L34.95-9.35Q34.95-4.85 31.63-2.43 28.3 0 21.8 0L21.8 0 5.7 0 5.7-35 20.8-35Q26.65-35 29.88-32.65 33.1-30.3 33.1-26L33.1-26Q33.1-23.1 31.68-21.08 30.25-19.05 27.75-18.05L27.75-18.05ZM20.55-31.95L9.4-31.95 9.4-19.25 20.55-19.25Q24.8-19.25 27.1-20.88 29.4-22.5 29.4-25.6L29.4-25.6Q29.4-28.7 27.1-30.33 24.8-31.95 20.55-31.95L20.55-31.95ZM21.75-3.05Q26.45-3.05 28.85-4.65 31.25-6.25 31.25-9.65L31.25-9.65Q31.25-16.2 21.75-16.2L21.75-16.2 9.4-16.2 9.4-3.05 21.75-3.05ZM53.9-2.9Q56.35-2.9 58.42-3.78 60.5-4.65 61.95-6.35L61.95-6.35 63.95-4.05Q62.2-1.95 59.6-0.85 57 0.25 53.85 0.25L53.85 0.25Q49.8 0.25 46.65-1.48 43.5-3.2 41.75-6.25 40-9.3 40-13.15L40-13.15Q40-17 41.67-20.05 43.35-23.1 46.3-24.8 49.25-26.5 53-26.5L53-26.5Q56.5-26.5 59.32-24.9 62.15-23.3 63.82-20.45 65.5-17.6 65.6-13.95L65.6-13.95 44-9.75Q45-6.55 47.62-4.73 50.25-2.9 53.9-2.9L53.9-2.9ZM53-23.45Q50.25-23.45 48.07-22.18 45.9-20.9 44.67-18.63 43.45-16.35 43.45-13.4L43.45-13.4Q43.45-12.65 43.5-12.3L43.5-12.3 62.05-15.9Q61.45-19.2 59-21.33 56.55-23.45 53-23.45L53-23.45ZM84.1-2.9Q86.55-2.9 88.62-3.78 90.7-4.65 92.15-6.35L92.15-6.35 94.15-4.05Q92.4-1.95 89.8-0.85 87.2 0.25 84.05 0.25L84.05 0.25Q80 0.25 76.85-1.48 73.7-3.2 71.95-6.25 70.2-9.3 70.2-13.15L70.2-13.15Q70.2-17 71.87-20.05 73.55-23.1 76.5-24.8 79.45-26.5 83.2-26.5L83.2-26.5Q86.7-26.5 89.52-24.9 92.35-23.3 94.02-20.45 95.7-17.6 95.8-13.95L95.8-13.95 74.2-9.75Q75.2-6.55 77.82-4.73 80.45-2.9 84.1-2.9L84.1-2.9ZM83.2-23.45Q80.45-23.45 78.27-22.18 76.1-20.9 74.87-18.63 73.65-16.35 73.65-13.4L73.65-13.4Q73.65-12.65 73.7-12.3L73.7-12.3 92.25-15.9Q91.65-19.2 89.2-21.33 86.75-23.45 83.2-23.45L83.2-23.45ZM135.84-26.5Q140.79-26.5 143.62-23.65 146.44-20.8 146.44-15.25L146.44-15.25 146.44 0 142.89 0 142.89-14.9Q142.89-19 140.92-21.15 138.94-23.3 135.34-23.3L135.34-23.3Q131.24-23.3 128.89-20.78 126.54-18.25 126.54-13.8L126.54-13.8 126.54 0 122.99 0 122.99-14.9Q122.99-19 121.02-21.15 119.04-23.3 115.39-23.3L115.39-23.3Q111.34-23.3 108.97-20.78 106.59-18.25 106.59-13.8L106.59-13.8 106.59 0 103.04 0 103.04-26.3 106.44-26.3 106.44-21.5Q107.84-23.9 110.34-25.2 112.84-26.5 116.09-26.5L116.09-26.5Q119.39-26.5 121.82-25.1 124.24-23.7 125.44-20.95L125.44-20.95Q126.89-23.55 129.62-25.03 132.34-26.5 135.84-26.5L135.84-26.5ZM176.64-26.3L180.19-26.3 180.19 0 176.79 0 176.79-5.2Q175.19-2.55 172.56-1.15 169.94 0.25 166.64 0.25L166.64 0.25Q162.94 0.25 159.94-1.45 156.94-3.15 155.24-6.2 153.54-9.25 153.54-13.15L153.54-13.15Q153.54-17.05 155.24-20.1 156.94-23.15 159.94-24.83 162.94-26.5 166.64-26.5L166.64-26.5Q169.84-26.5 172.42-25.18 174.99-23.85 176.64-21.3L176.64-21.3 176.64-26.3ZM166.94-2.9Q169.69-2.9 171.92-4.17 174.14-5.45 175.42-7.8 176.69-10.15 176.69-13.15L176.69-13.15Q176.69-16.15 175.42-18.5 174.14-20.85 171.92-22.13 169.69-23.4 166.94-23.4L166.94-23.4Q164.14-23.4 161.92-22.13 159.69-20.85 158.42-18.5 157.14-16.15 157.14-13.15L157.14-13.15Q157.14-10.15 158.42-7.8 159.69-5.45 161.92-4.17 164.14-2.9 166.94-2.9L166.94-2.9ZM210.44 0L199.84-13.2 193.64-7.5 193.64 0 190.09 0 190.09-37.1 193.64-37.1 193.64-11.95 209.34-26.3 213.74-26.3 202.49-15.55 214.79 0 210.44 0ZM247.58-32Q242.43-32 239.91-29.68 237.38-27.35 237.38-22.95L237.38-22.95 237.38-18.05 254.08-18.05 254.08-14.85 237.38-14.85 237.38 0 233.68 0 233.68-23Q233.68-28.75 237.28-32.02 240.88-35.3 247.43-35.3L247.43-35.3Q253.78-35.3 257.63-32.55L257.63-32.55 256.28-29.5Q252.88-32 247.58-32L247.58-32ZM272.58 0.25Q268.78 0.25 265.73-1.48 262.68-3.2 260.93-6.25 259.18-9.3 259.18-13.15L259.18-13.15Q259.18-17 260.93-20.05 262.68-23.1 265.73-24.8 268.78-26.5 272.58-26.5L272.58-26.5Q276.38-26.5 279.43-24.8 282.48-23.1 284.21-20.05 285.93-17 285.93-13.15L285.93-13.15Q285.93-9.3 284.21-6.25 282.48-3.2 279.43-1.48 276.38 0.25 272.58 0.25L272.58 0.25ZM272.58-2.9Q275.38-2.9 277.61-4.17 279.83-5.45 281.08-7.8 282.33-10.15 282.33-13.15L282.33-13.15Q282.33-16.15 281.08-18.5 279.83-20.85 277.61-22.13 275.38-23.4 272.58-23.4L272.58-23.4Q269.78-23.4 267.56-22.13 265.33-20.85 264.06-18.5 262.78-16.15 262.78-13.15L262.78-13.15Q262.78-10.15 264.06-7.8 265.33-5.45 267.56-4.17 269.78-2.9 272.58-2.9L272.58-2.9ZM303.93 0.25Q300.13 0.25 297.08-1.48 294.03-3.2 292.28-6.25 290.53-9.3 290.53-13.15L290.53-13.15Q290.53-17 292.28-20.05 294.03-23.1 297.08-24.8 300.13-26.5 303.93-26.5L303.93-26.5Q307.73-26.5 310.78-24.8 313.83-23.1 315.55-20.05 317.28-17 317.28-13.15L317.28-13.15Q317.28-9.3 315.55-6.25 313.83-3.2 310.78-1.48 307.73 0.25 303.93 0.25L303.93 0.25ZM303.93-2.9Q306.73-2.9 308.95-4.17 311.18-5.45 312.43-7.8 313.68-10.15 313.68-13.15L313.68-13.15Q313.68-16.15 312.43-18.5 311.18-20.85 308.95-22.13 306.73-23.4 303.93-23.4L303.93-23.4Q301.13-23.4 298.9-22.13 296.68-20.85 295.4-18.5 294.13-16.15 294.13-13.15L294.13-13.15Q294.13-10.15 295.4-7.8 296.68-5.45 298.9-4.17 301.13-2.9 303.93-2.9L303.93-2.9ZM344.98-37.1L348.53-37.1 348.53 0 345.13 0 345.13-5.2Q343.53-2.55 340.9-1.15 338.28 0.25 334.98 0.25L334.98 0.25Q331.28 0.25 328.28-1.45 325.28-3.15 323.58-6.2 321.88-9.25 321.88-13.15L321.88-13.15Q321.88-17.05 323.58-20.1 325.28-23.15 328.28-24.83 331.28-26.5 334.98-26.5L334.98-26.5Q338.18-26.5 340.75-25.18 343.33-23.85 344.98-21.3L344.98-21.3 344.98-37.1ZM335.28-2.9Q338.03-2.9 340.25-4.17 342.48-5.45 343.75-7.8 345.03-10.15 345.03-13.15L345.03-13.15Q345.03-16.15 343.75-18.5 342.48-20.85 340.25-22.13 338.03-23.4 335.28-23.4L335.28-23.4Q332.48-23.4 330.25-22.13 328.03-20.85 326.75-18.5 325.48-16.15 325.48-13.15L325.48-13.15Q325.48-10.15 326.75-7.8 328.03-5.45 330.25-4.17 332.48-2.9 335.28-2.9L335.28-2.9ZM365.47 0.25Q362.27 0.25 359.35-0.68 356.42-1.6 354.77-3L354.77-3 356.37-5.8Q358.02-4.5 360.52-3.68 363.02-2.85 365.72-2.85L365.72-2.85Q369.32-2.85 371.05-3.98 372.77-5.1 372.77-7.15L372.77-7.15Q372.77-8.6 371.82-9.43 370.87-10.25 369.42-10.68 367.97-11.1 365.57-11.5L365.57-11.5Q362.37-12.1 360.42-12.73 358.47-13.35 357.1-14.85 355.72-16.35 355.72-19L355.72-19Q355.72-22.3 358.47-24.4 361.22-26.5 366.12-26.5L366.12-26.5Q368.67-26.5 371.22-25.83 373.77-25.15 375.42-24.05L375.42-24.05 373.87-21.2Q370.62-23.45 366.12-23.45L366.12-23.45Q362.72-23.45 361-22.25 359.27-21.05 359.27-19.1L359.27-19.1Q359.27-17.6 360.25-16.7 361.22-15.8 362.67-15.38 364.12-14.95 366.67-14.5L366.67-14.5Q369.82-13.9 371.72-13.3 373.62-12.7 374.97-11.25 376.32-9.8 376.32-7.25L376.32-7.25Q376.32-3.8 373.45-1.78 370.57 0.25 365.47 0.25L365.47 0.25Z" opacity="1" transform="matrix(1,0,0,1,0,0)" fill="#ffffff" class="wordmark-text-0" data-fill-palette-color="primary" id="text-0"></path></svg></g></svg></g><g transform="matrix(1,0,0,1,0,30.445891824401706)"><svg viewBox="0 0 244.43135999999998 15.222009931007685" height="15.222009931007685" width="244.43135999999998"><g transform="matrix(1,0,0,1,0,0)"><svg width="244.43135999999998" viewBox="2.5 -38 809.31 50.4" height="15.222009931007685" data-palette-color="#6936f5"><path d="M19.73-20.38Q17.45-23 14-23 10.55-23 8.65-20.63 6.75-18.25 6.75-13.65L6.75-13.65Q6.75-7.7 9.08-5.03 11.4-2.35 14.85-2.35 18.3-2.35 20.15-4.75 22-7.15 22-11.75L22-11.75Q22-17.75 19.73-20.38ZM5.98-22.4Q9.45-25.85 14.4-25.85 19.35-25.85 22.83-22.38 26.3-18.9 26.3-12.68 26.3-6.45 22.83-3 19.35 0.45 14.4 0.45 9.45 0.45 5.98-3 2.5-6.45 2.5-12.7 2.5-18.95 5.98-22.4ZM62.67-6.4L62.67-6.4Q62.67-2.8 66.59-2.8 70.52-2.8 73.07-6.25L73.07-6.25 73.07-12.2Q67.77-11.9 65.22-10.33 62.67-8.75 62.67-6.4ZM77.22-17.8L77.22-17.8 77.22-4.5Q77.22-1.85 79.67-1.5L79.67-1.5Q78.72 0.45 76.52 0.45L76.52 0.45Q73.37 0.45 73.07-3.6L73.07-3.6Q70.17 0.45 65.27 0.45L65.27 0.45Q62.17 0.45 60.17-1.25 58.17-2.95 58.17-5.95L58.17-5.95Q58.17-9.65 61.89-11.93 65.62-14.2 73.07-14.4L73.07-14.4 73.07-17.4Q73.07-20.5 71.97-21.98 70.87-23.45 68.49-23.45 66.12-23.45 64.92-22.48 63.72-21.5 63.72-20.28 63.72-19.05 64.42-18.3L64.42-18.3Q63.37-17.5 62.09-17.5 60.82-17.5 60.02-18.2 59.22-18.9 59.22-20.2L59.22-20.2Q59.22-22.55 61.92-24.2 64.62-25.85 68.57-25.85 72.52-25.85 74.87-23.73 77.22-21.6 77.22-17.8ZM129.71-18.98Q128.89-18.3 127.74-18.3 126.59-18.3 125.79-18.9L125.79-18.9Q126.09-19.4 126.09-20.35 126.09-21.3 124.94-22.2 123.79-23.1 121.49-23.1 119.19-23.1 117.84-22.08 116.49-21.05 116.49-19.65 116.49-18.25 117.99-17.13 119.49-16 121.59-15.08 123.69-14.15 125.81-13.1 127.94-12.05 129.44-10.43 130.94-8.8 130.94-6.8L130.94-6.8Q130.94-3.85 128.14-1.7 125.34 0.45 121.04 0.45 116.74 0.45 114.04-1.2 111.34-2.85 111.34-5.45L111.34-5.45Q111.34-7 112.21-7.88 113.09-8.75 114.31-8.75 115.54-8.75 116.24-7.9L116.24-7.9Q115.54-6.95 115.54-5.6 115.54-4.25 116.91-3.28 118.29-2.3 120.91-2.3 123.54-2.3 125.11-3.43 126.69-4.55 126.69-6.18 126.69-7.8 125.21-9 123.74-10.2 121.64-11.08 119.54-11.95 117.41-12.93 115.29-13.9 113.81-15.4 112.34-16.9 112.34-18.8L112.34-18.8Q112.34-21.8 114.94-23.83 117.54-25.85 121.31-25.85 125.09-25.85 127.79-24.48 130.49-23.1 130.49-20.85L130.49-20.85Q130.54-19.65 129.71-18.98ZM167.28-36.5Q168.56-36.5 169.38-35.77 170.21-35.05 170.21-33.77 170.21-32.5 169.13-31.48 168.06-30.45 166.71-30.45 165.36-30.45 164.51-31.25 163.66-32.05 163.66-33.35 163.66-34.65 164.83-35.58 166.01-36.5 167.28-36.5ZM169.21-22.35L169.21-22.35 169.21-3.1Q169.21-1.65 170.46-1.15L170.46-1.15Q169.41 0.45 167.86 0.45L167.86 0.45Q165.06 0.45 165.06-3.05L165.06-3.05 165.06-22.25Q165.06-23.7 163.81-24.25L163.81-24.25Q164.76-25.85 166.41-25.85L166.41-25.85Q169.21-25.85 169.21-22.35ZM221.6-18.98Q220.78-18.3 219.63-18.3 218.48-18.3 217.68-18.9L217.68-18.9Q217.98-19.4 217.98-20.35 217.98-21.3 216.83-22.2 215.68-23.1 213.38-23.1 211.08-23.1 209.73-22.08 208.38-21.05 208.38-19.65 208.38-18.25 209.88-17.13 211.38-16 213.48-15.08 215.58-14.15 217.7-13.1 219.83-12.05 221.33-10.43 222.83-8.8 222.83-6.8L222.83-6.8Q222.83-3.85 220.03-1.7 217.23 0.45 212.93 0.45 208.63 0.45 205.93-1.2 203.23-2.85 203.23-5.45L203.23-5.45Q203.23-7 204.1-7.88 204.98-8.75 206.2-8.75 207.43-8.75 208.13-7.9L208.13-7.9Q207.43-6.95 207.43-5.6 207.43-4.25 208.8-3.28 210.18-2.3 212.8-2.3 215.43-2.3 217-3.43 218.58-4.55 218.58-6.18 218.58-7.8 217.1-9 215.63-10.2 213.53-11.08 211.43-11.95 209.3-12.93 207.18-13.9 205.7-15.4 204.23-16.9 204.23-18.8L204.23-18.8Q204.23-21.8 206.83-23.83 209.43-25.85 213.2-25.85 216.98-25.85 219.68-24.48 222.38-23.1 222.38-20.85L222.38-20.85Q222.43-19.65 221.6-18.98ZM312.44-20.38Q310.17-23 306.72-23 303.27-23 301.37-20.63 299.47-18.25 299.47-13.65L299.47-13.65Q299.47-7.7 301.79-5.03 304.12-2.35 307.57-2.35 311.02-2.35 312.87-4.75 314.72-7.15 314.72-11.75L314.72-11.75Q314.72-17.75 312.44-20.38ZM298.69-22.4Q302.17-25.85 307.12-25.85 312.07-25.85 315.54-22.38 319.02-18.9 319.02-12.68 319.02-6.45 315.54-3 312.07 0.45 307.12 0.45 302.17 0.45 298.69-3 295.22-6.45 295.22-12.7 295.22-18.95 298.69-22.4ZM353.94-23.25L354.34-23.25 354.34-30.05Q354.34-33.9 356.46-35.95 358.59-38 361.61-38 364.64-38 366.31-36.8 367.99-35.6 367.99-33.95L367.99-33.95Q367.99-32.95 367.19-32.6L367.19-32.6Q365.19-34.9 362.49-34.9L362.49-34.9Q360.69-34.9 359.61-33.75 358.54-32.6 358.54-30.25L358.54-30.25 358.54-23.25 366.39-23.25Q366.69-22.9 366.69-22.35L366.69-22.35Q366.69-20.05 359.24-20.05L359.24-20.05 358.54-20.05 358.54 6.35Q358.54 9.35 357.26 10.88 355.99 12.4 354.04 12.4L354.04 12.4Q351.34 12.4 350.24 9.85L350.24 9.85Q352.54 9.85 353.44 8.83 354.34 7.8 354.34 5.4L354.34 5.4 354.34-20.1Q349.94-20.35 349.94-22.05L349.94-22.05Q349.94-22.75 350.59-23.5L350.59-23.5Q351.74-23.25 353.94-23.25L353.94-23.25ZM448.02-2.95L448.02-2.95Q451.07-2.95 453.2-5.58 455.32-8.2 455.32-12.7 455.32-17.2 453.2-19.8 451.07-22.4 448.02-22.4L448.02-22.4Q443.72-22.4 441.52-18.3L441.52-18.3 441.52-6.4Q442.77-4.5 444.32-3.73 445.87-2.95 448.02-2.95ZM441.52-22.35L441.52-22.35 441.52-22.3Q444.12-25.85 448.65-25.85 453.17-25.85 456.4-22.43 459.62-19 459.62-12.75 459.62-6.5 456.25-3.05 452.87 0.4 448.5 0.4 444.12 0.4 441.52-2.5L441.52-2.5 441.52 8.85Q441.52 10.35 442.77 10.8L442.77 10.8Q441.72 12.4 440.17 12.4L440.17 12.4Q437.37 12.4 437.37 8.85L437.37 8.85 437.37-22.25Q437.37-23.7 436.12-24.25L436.12-24.25Q437.07-25.85 438.72-25.85L438.72-25.85Q441.52-25.85 441.52-22.35ZM497.34-34.55L497.34-34.55 497.34-3.1Q497.34-1.65 498.59-1.15L498.59-1.15Q497.54 0.45 495.99 0.45L495.99 0.45Q493.19 0.45 493.19-3.05L493.19-3.05 493.19-34.45Q493.19-35.9 491.94-36.45L491.94-36.45Q492.79-38 494.54-38L494.54-38Q497.34-38 497.34-34.55ZM535.61-14.65L544.96-15.4Q547.01-15.55 547.01-17.78 547.01-20 545.74-21.48 544.46-22.95 542.16-22.95 539.86-22.95 537.96-20.75 536.06-18.55 535.61-14.65L535.61-14.65ZM535.51-12.5Q535.51-7.6 537.64-5.25 539.76-2.9 543.71-2.9 547.66-2.9 550.26-5.5L550.26-5.5Q551.01-5.1 551.01-4.15L551.01-4.15Q551.01-2.5 548.61-1.03 546.21 0.45 542.91 0.45L542.91 0.45Q537.76 0.45 534.46-2.8 531.16-6.05 531.16-11.93 531.16-17.8 534.74-21.83 538.31-25.85 542.96-25.85L542.96-25.85Q546.66-25.85 548.99-23.3 551.31-20.75 551.31-17.5L551.31-17.5Q551.31-15.15 550.04-14.03 548.76-12.9 545.91-12.8L545.91-12.8 535.51-12.5ZM587.08-6.4L587.08-6.4Q587.08-2.8 591.01-2.8 594.93-2.8 597.48-6.25L597.48-6.25 597.48-12.2Q592.18-11.9 589.63-10.33 587.08-8.75 587.08-6.4ZM601.63-17.8L601.63-17.8 601.63-4.5Q601.63-1.85 604.08-1.5L604.08-1.5Q603.13 0.45 600.93 0.45L600.93 0.45Q597.78 0.45 597.48-3.6L597.48-3.6Q594.58 0.45 589.68 0.45L589.68 0.45Q586.58 0.45 584.58-1.25 582.58-2.95 582.58-5.95L582.58-5.95Q582.58-9.65 586.31-11.93 590.03-14.2 597.48-14.4L597.48-14.4 597.48-17.4Q597.48-20.5 596.38-21.98 595.28-23.45 592.91-23.45 590.53-23.45 589.33-22.48 588.13-21.5 588.13-20.28 588.13-19.05 588.83-18.3L588.83-18.3Q587.78-17.5 586.51-17.5 585.23-17.5 584.43-18.2 583.63-18.9 583.63-20.2L583.63-20.2Q583.63-22.55 586.33-24.2 589.03-25.85 592.98-25.85 596.93-25.85 599.28-23.73 601.63-21.6 601.63-17.8ZM654.13-18.98Q653.3-18.3 652.15-18.3 651-18.3 650.2-18.9L650.2-18.9Q650.5-19.4 650.5-20.35 650.5-21.3 649.35-22.2 648.2-23.1 645.9-23.1 643.6-23.1 642.25-22.08 640.9-21.05 640.9-19.65 640.9-18.25 642.4-17.13 643.9-16 646-15.08 648.1-14.15 650.23-13.1 652.35-12.05 653.85-10.43 655.35-8.8 655.35-6.8L655.35-6.8Q655.35-3.85 652.55-1.7 649.75 0.45 645.45 0.45 641.15 0.45 638.45-1.2 635.75-2.85 635.75-5.45L635.75-5.45Q635.75-7 636.63-7.88 637.5-8.75 638.73-8.75 639.95-8.75 640.65-7.9L640.65-7.9Q639.95-6.95 639.95-5.6 639.95-4.25 641.33-3.28 642.7-2.3 645.33-2.3 647.95-2.3 649.53-3.43 651.1-4.55 651.1-6.18 651.1-7.8 649.63-9 648.15-10.2 646.05-11.08 643.95-11.95 641.83-12.93 639.7-13.9 638.23-15.4 636.75-16.9 636.75-18.8L636.75-18.8Q636.75-21.8 639.35-23.83 641.95-25.85 645.73-25.85 649.5-25.85 652.2-24.48 654.9-23.1 654.9-20.85L654.9-20.85Q654.95-19.65 654.13-18.98ZM710.17-22.35L710.17-22.35 710.17-3.1Q710.17-1.7 711.47-1.15L711.47-1.15Q710.42 0.45 708.82 0.45L708.82 0.45Q706.07 0.45 706.07-3.05L706.07-3.05 706.07-4.35Q703.27 0.45 697.92 0.45L697.92 0.45Q689.47 0.45 689.47-8.15L689.47-8.15 689.47-22.25Q689.47-23.7 688.22-24.25L688.22-24.25Q689.17-25.85 690.82-25.85L690.82-25.85Q693.62-25.85 693.62-22.35L693.62-22.35 693.62-8.4Q693.62-3.1 698.82-3.1L698.82-3.1Q701.22-3.1 703.15-4.55 705.07-6 706.07-8.6L706.07-8.6 706.07-22.25Q706.07-23.7 704.77-24.25L704.77-24.25Q705.92-25.85 707.42-25.85L707.42-25.85Q710.17-25.85 710.17-22.35ZM750.09-22.35L750.09-22.35 750.09-20.5Q752.19-25.85 757.04-25.85L757.04-25.85Q759.39-25.85 760.69-24.65 761.99-23.45 761.99-21.88 761.99-20.3 761.19-19.48 760.39-18.65 759.54-18.65 758.69-18.65 757.99-18.85L757.99-18.85Q758.09-19.35 758.09-20.15L758.09-20.15Q758.09-22.65 755.59-22.65L755.59-22.65Q753.94-22.65 752.34-21 750.74-19.35 750.09-15.95L750.09-15.95 750.09-3.1Q750.09-1.65 751.34-1.15L751.34-1.15Q750.29 0.45 748.74 0.45L748.74 0.45Q745.94 0.45 745.94-3.05L745.94-3.05 745.94-22.25Q745.94-23.7 744.69-24.25L744.69-24.25Q745.64-25.85 747.29-25.85L747.29-25.85Q750.09-25.85 750.09-22.35ZM796.11-14.65L805.46-15.4Q807.51-15.55 807.51-17.78 807.51-20 806.24-21.48 804.96-22.95 802.66-22.95 800.36-22.95 798.46-20.75 796.56-18.55 796.11-14.65L796.11-14.65ZM796.01-12.5Q796.01-7.6 798.14-5.25 800.26-2.9 804.21-2.9 808.16-2.9 810.76-5.5L810.76-5.5Q811.51-5.1 811.51-4.15L811.51-4.15Q811.51-2.5 809.11-1.03 806.71 0.45 803.41 0.45L803.41 0.45Q798.26 0.45 794.96-2.8 791.66-6.05 791.66-11.93 791.66-17.8 795.24-21.83 798.81-25.85 803.46-25.85L803.46-25.85Q807.16-25.85 809.49-23.3 811.81-20.75 811.81-17.5L811.81-17.5Q811.81-15.15 810.54-14.03 809.26-12.9 806.41-12.8L806.41-12.8 796.01-12.5Z" opacity="1" transform="matrix(1,0,0,1,0,0)" fill="#ffffff" class="slogan-text-1" data-fill-palette-color="secondary" id="text-1"></path></svg></g></svg></g></svg></g></svg></g><g transform="matrix(1,0,0,1,74.88314789380875,0)"><svg viewBox="0 0 95.88722101238244 63.11304022597578" height="63.11304022597578" width="95.88722101238244"><g><svg xmlns="http://www.w3.org/2000/svg" xmlns:xlink="http://www.w3.org/1999/xlink" xmlns:a="http://ns.adobe.com/AdobeSVGViewerExtensions/3.0/" version="1.1" x="8" y="0" viewBox="0 0 37.781 29.848" enable-background="new -1 -7.152 40 40" xml:space="preserve" height="63.11304022597578" width="79.88722101238244" class="icon-icon-0" data-fill-palette-color="accent" id="icon-0"><polygon points="29.671,24.107 37.781,8.659 8.609,8.659 4.067,0 0,0 12.651,24.107 29.671,24.107 " fill="#ffffff" data-fill-palette-color="accent"></polygon><path d="M17.318 29.848c0.625 0 1.123-0.225 1.547-0.648 0.424-0.425 0.648-0.948 0.648-1.547 0-0.624-0.224-1.148-0.648-1.573-0.425-0.424-0.923-0.648-1.547-0.648-0.623 0-1.148 0.225-1.571 0.648-0.425 0.425-0.624 0.949-0.624 1.573 0 0.599 0.199 1.122 0.624 1.547C16.169 29.623 16.695 29.848 17.318 29.848L17.318 29.848z" fill="#ffffff" data-fill-palette-color="accent"></path><path d="M25.179 29.848c-0.623 0-1.123-0.225-1.548-0.648-0.424-0.425-0.648-0.948-0.648-1.547 0-0.624 0.225-1.148 0.648-1.573 0.425-0.424 0.925-0.648 1.548-0.648 0.624 0 1.147 0.225 1.572 0.648 0.425 0.425 0.625 0.949 0.625 1.573 0 0.599-0.2 1.122-0.625 1.547C26.326 29.623 25.803 29.848 25.179 29.848L25.179 29.848z" fill="#ffffff" data-fill-palette-color="accent"></path></svg></g></svg></g><g><rect width="27.585679733808774" height="2.2212565771723654" y="59.89178364880341" x="170.7703689061912" fill="#ffffff" data-fill-palette-color="secondary"></rect><rect width="27.585679733808774" height="2.2212565771723654" y="59.89178364880341" x="47.29746815999998" fill="#ffffff" data-fill-palette-color="secondary"></rect></g></svg></g></svg></g><g><path d="M95.413 56.803A122.216 122.216 0 0 1 300.107 56.803L297.897 56.803A120.005 120.005 0 0 0 97.623 56.803L95.413 56.803M95.413 190.397A122.216 122.216 0 0 0 300.107 190.397L297.897 190.397A120.005 120.005 0 0 1 97.623 190.397L95.413 190.397" fill="#ffffff" stroke="transparent" data-fill-palette-color="tertiary"></path></g></svg></g><defs></defs></svg><rect width="395.52" height="247.2" fill="none" stroke="none" visibility="hidden"></rect></g></svg></g></svg>